<?xml version="1.0"?>
<svg xmlns="http://www.w3.org/2000/svg" viewBox="0 0 512 512" width="512" height="512"><g id="Out_line" data-name="Out line"><path d="M448,16a48.05088,48.05088,0,0,0-48,48,48.56972,48.56972,0,0,0,.37988,6.06H400a41.67841,41.67841,0,0,0-29.65991,12.28l-120,120a8.01,8.01,0,0,0-.07007,11.24L77.03,294.42A105.66707,105.66707,0,0,0,45.3501,463.28c.54.58,1.09985,1.15,1.65991,1.71s1.13013,1.12,1.71,1.66a105.65761,105.65761,0,0,0,168.8501-31.68l80.84985-173.24a8.00424,8.00424,0,0,0,11.24-.07l120-120a41.67786,41.67786,0,0,0,12.28-29.66v-.38A48.56991,48.56991,0,0,0,448,112a48,48,0,0,0,0-96ZM40.8501,412.16A96.31508,96.31508,0,0,0,38,422.53,89.77226,89.77226,0,0,1,83.79,308.92L241.77,235.2,108.34009,327.58C76.83008,349.39,50.97,381.8,40.8501,412.16ZM56.03,417.22c8.93994-26.83,33.05005-56.85,61.40991-76.49l138.15015-95.64L54.01,446.67C51.42993,439.31,52.08008,429.06,56.03,417.22Zm9.3,40.77L266.90991,256.41,171.27,394.56c-19.64014,28.36-49.66016,52.47-76.49,61.41C82.93994,459.92,72.68994,460.57,65.33008,457.99Zm137.75-29.78A89.77241,89.77241,0,0,1,89.47,474a97.02073,97.02073,0,0,0,10.37012-2.85c30.35986-10.12,62.76977-35.98,84.57983-67.49l92.38013-133.43ZM425.93994,112a25.76376,25.76376,0,0,1-7.59985,18.34L304,244.69,267.31006,208,381.65991,93.66A25.76431,25.76431,0,0,1,400,86.06a25.24108,25.24108,0,0,1,5.71.64,25.93419,25.93419,0,0,1,19.59009,19.59A25.24754,25.24754,0,0,1,425.93994,112ZM448,96a31.99738,31.99738,0,0,1-9.89014-1.56v-.01a42.2651,42.2651,0,0,0-20.53979-20.54h-.01A32.00383,32.00383,0,1,1,448,96Z"/><path d="M448,40a24,24,0,1,0,24,24A24.03185,24.03185,0,0,0,448,40Zm0,32a8,8,0,1,1,8-8A8.0107,8.0107,0,0,1,448,72Z"/><path d="M48.72,466.65c-.63989-.55-1.22-1.09-1.75-1.62l.04-.04C47.57007,465.55,48.14014,466.11,48.72,466.65Z"/><path d="M47.01,464.99l-.04.04c-.52-.52-1.07007-1.11-1.61987-1.75C45.89014,463.86,46.45,464.43,47.01,464.99Z"/></g></svg>
